<svg xmlns="http://www.w3.org/2000/svg" viewBox="0 0 500 500"><g id="freepik--Floor--inject-410"><path id="freepik--floor--inject-410" d="M82.83,448.23c-92.33-53.31-92.32-139.73,0-193s242-53.31,334.33,0,92.31,139.72,0,193S175.15,501.53,82.83,448.23Z" style="fill:#f5f5f5"></path></g><g id="freepik--Window--inject-410"><g id="freepik--window--inject-410"><g id="freepik--window--inject-410"><g id="freepik--Frame--inject-410"><polygon points="468.84 224.84 466.31 226.34 380.46 176.78 382.98 175.27 468.84 224.84" style="fill:#fafafa"></polygon><polygon points="382.98 175.27 466.31 223.37 466.31 83.96 382.98 35.87 382.98 175.27" style="fill:#fff"></polygon><path d="M375.69,179.52l95.39,55.07V81.21L375.69,26.14Zm4.77-145.13L466.31,84V226.34l-85.85-49.57Z" style="fill:#f0f0f0"></path><polygon points="380.46 176.78 382.98 175.27 382.98 35.87 380.46 34.39 380.46 176.78" style="fill:#e0e0e0"></polygon><polygon points="466.31 182.77 466.31 185.74 380.46 136.17 382.98 134.66 466.31 182.77" style="fill:#fafafa"></polygon><polygon points="466.31 116.12 466.31 119.08 380.46 69.52 382.98 68.01 466.31 116.12" style="fill:#fafafa"></polygon><polygon points="375.69 26.14 378.26 24.67 473.64 79.74 471.08 81.21 375.69 26.14" style="fill:#fafafa"></polygon><polygon points="473.64 79.74 471.08 81.21 471.08 234.59 473.64 233.13 473.64 79.74" style="fill:#e0e0e0"></polygon><polygon points="429.59 62.76 427.03 61.28 427.03 203.67 429.59 202.2 429.59 62.76" style="fill:#e0e0e0"></polygon></g><polygon points="422.26 58.54 427.03 61.28 427.03 203.67 422.27 200.91 422.26 58.54" style="fill:#f0f0f0"></polygon><polygon points="375.69 66.77 375.69 72.26 471.08 127.33 471.08 121.83 375.69 66.77" style="fill:#f0f0f0"></polygon><polygon points="375.69 133.41 375.69 138.9 471.08 193.97 471.08 188.47 375.69 133.41" style="fill:#f0f0f0"></polygon><polygon points="427.03 96.4 429.59 94.92 466.31 116.12 466.31 119.08 427.03 96.4" style="fill:#fafafa"></polygon><polygon points="427.03 163.03 429.59 161.54 466.31 182.74 466.31 185.71 427.03 163.03" style="fill:#fafafa"></polygon></g></g></g><g id="freepik--Pictures--inject-410"><g id="freepik--Picture--inject-410"><g id="freepik--frame--inject-410"><polygon points="33.26 114.47 35.7 115.93 85.89 86.96 83.44 85.5 33.26 114.47" style="fill:#fafafa"></polygon><polygon points="83.44 85.5 35.7 113.05 35.7 63.06 83.44 35.52 83.44 85.5" style="fill:#fff"></polygon><path d="M90.5,26.1,31.09,60.4v63.52L90.5,89.62ZM85.89,87l-50.19,29V63.06l50.18-29Z" style="fill:#ebebeb"></path><polygon points="85.89 86.96 83.44 85.5 83.44 35.52 85.89 34.09 85.89 86.96" style="fill:#e0e0e0"></polygon><polygon points="90.5 26.1 88.02 24.67 28.61 58.98 31.09 60.4 90.5 26.1" style="fill:#f5f5f5"></polygon><polygon points="28.61 58.98 31.09 60.4 31.09 123.92 28.61 122.5 28.61 58.98" style="fill:#e0e0e0"></polygon></g><g id="freepik--Land--inject-410"><polygon points="81.58 84 37.57 109.41 37.57 96.71 48.57 71.3 55.43 77.65 52.96 88.3 68.16 55.8 81.58 71.3 81.58 84" style="fill:#f0f0f0"></polygon><path d="M55,59a7.18,7.18,0,0,0-3.25,5.64c0,2.07,1.46,2.92,3.25,1.88a7.19,7.19,0,0,0,3.26-5.64C58.27,58.83,56.81,58,55,59Z" style="fill:#f0f0f0"></path></g></g><g id="freepik--picture--inject-410"><g id="freepik--frame--inject-410"><polygon points="33.26 201.49 35.7 202.95 85.89 173.98 83.44 172.52 33.26 201.49" style="fill:#fafafa"></polygon><polygon points="83.44 172.52 35.7 200.07 35.7 150.08 83.44 122.54 83.44 172.52" style="fill:#fff"></polygon><path d="M90.51,113.12l-59.42,34.3v63.52l59.41-34.3ZM85.89,174,35.7,203V150.08l50.18-29Z" style="fill:#ebebeb"></path><polygon points="85.89 173.98 83.44 172.52 83.44 122.54 85.89 121.11 85.89 173.98" style="fill:#e0e0e0"></polygon><polygon points="90.5 113.11 88.02 111.69 28.61 146 31.09 147.42 90.5 113.11" style="fill:#f5f5f5"></polygon><polygon points="28.61 146 31.09 147.42 31.09 210.94 28.61 209.52 28.61 146" style="fill:#e0e0e0"></polygon></g><g id="freepik--land--inject-410"><polygon points="81.58 171.02 37.57 196.43 37.57 183.73 48.57 158.32 55.43 164.67 52.96 175.32 68.16 142.82 81.58 158.32 81.58 171.02" style="fill:#f0f0f0"></polygon><path d="M55,146.05a7.18,7.18,0,0,0-3.25,5.64c0,2.07,1.46,2.92,3.25,1.88a7.19,7.19,0,0,0,3.26-5.64C58.27,145.85,56.81,145,55,146.05Z" style="fill:#f0f0f0"></path></g></g></g><g id="freepik--Shadows--inject-410"><path id="freepik--Shadow--inject-410" d="M164.31,369.83c-3.62-1-7.25-1.9-10.88-2.76-16.69-4-34.42-6.28-50.85-1.34-2.47.74-5,1.66-7.55,1.41s-5.21-2.09-5.34-4.67c-.26-4.88,7.08-5.85,10.16-9.64a154.91,154.91,0,0,1-37.78-2.63c-2.58-.5-5.77-1.8-5.72-4.43.07-3.58,5.24-3.69,8.77-4.28,4.33-.73,7.78-3.87,11.62-6,11.48-6.4,26.08-3.6,38.27-8.53,6.82-2.77,12.45-7.78,17.93-12.69,8.27-7.42,16.07-14.56,25.72-20.13,14.6-8.42,35.1-17.35,52.26-17.4,18.08-.05,36.13,3.35,53.58,8,27,7.18,55.75,15.52,73.92,36.79,5.26,6.16,9.41,13.18,13.55,20.15,12.57,21.18,25.4,42.33,41.16,61.26,6.71,8.06,14.22,18.15,22.84,24.2,9.64,6.77,23.22,10.69,33.95,15.6,7.74,3.55,25,12,13.13,22-13.85,11.61-35.34,13-50.55,3.22-3.95-2.54-7.52-5.74-11.86-7.53-4.5-1.86-9.76-2.17-13.57-5.22-4.71-3.77-7.25-11.54-10.13-16.72-3.23-5.82-5.91-11.29-10.46-16.3-9.22-10.13-21.23-17.29-33-24.12-2-1.19-4.39-2.42-6.65-1.73-8,2.46,7.19,12.14,9.21,13.51,4.66,3.16,9.53,6.11,13.47,10.14s6.91,9.37,6.69,15a5,5,0,0,1-.92,3.08,5.49,5.49,0,0,1-2.32,1.44c-11.3,4.37-27.21,2.29-37.86-2.94-9.37-4.6-13.76-11.29-20.52-18.79a129.39,129.39,0,0,0-38.16-29c-3-1.49-6.46-2.54-9.28-4.33-2.37-1.51-3.78-3.33-6.72-4.1-11.84-3.08-24.77-.94-36.85-2.06C190.26,377,177.3,373.28,164.31,369.83Z" style="fill:#e0e0e0"></path><path id="freepik--shadow--inject-410" d="M452.45,369.1c11.32,6.54,11.32,17.13,0,23.67s-29.67,6.54-41,0-11.33-17.13,0-23.67S441.12,362.56,452.45,369.1Z" style="fill:#e0e0e0"></path><path d="M90.75,410.43v7.67A3.36,3.36,0,0,0,92.44,421l55,31.73a3.24,3.24,0,0,0,3.24.35l70.58-40.77a2.82,2.82,0,0,0,1.19-2.59,9.51,9.51,0,0,0-4.44-7.37l-56.65-32.71Z" style="fill:#e0e0e0"></path></g><g id="freepik--Bottle--inject-410"><g id="freepik--Water--inject-410"><g id="freepik--Jar--inject-410"><path d="M447.74,311.56a23.29,23.29,0,0,0-3-1.46,5.12,5.12,0,0,1-3.28-4.74v-5.79l-18.88,0v5.78a5.11,5.11,0,0,1-3.29,4.73,25.51,25.51,0,0,0-3,1.45c-4.34,2.5-6.52,5.79-6.53,9.08l-.08,58.08c0,3.28,2.16,6.58,6.5,9.09,8.69,5,22.78,5.05,31.48.05,4.35-2.5,6.52-5.79,6.53-9.08l.08-58.08C454.25,317.36,452.08,314.07,447.74,311.56Z" style="fill:#FFC100"></path><path d="M447.74,311.56a23.29,23.29,0,0,0-3-1.46,5.12,5.12,0,0,1-3.28-4.74v-5.79l-18.88,0v5.78a5.11,5.11,0,0,1-3.29,4.73,25.51,25.51,0,0,0-3,1.45c-4.34,2.5-6.52,5.79-6.53,9.08l-.08,58.08c0,3.28,2.16,6.58,6.5,9.09,8.69,5,22.78,5.05,31.48.05,4.35-2.5,6.52-5.79,6.53-9.08l.08-58.08C454.25,317.36,452.08,314.07,447.74,311.56Z" style="opacity:0.2"></path><path d="M451.31,333.41c-.3-9.11-36.55-8.13-38.7-.41l-.06,45.67c0,2.32,1.84,4.72,5.05,6.58a31.94,31.94,0,0,0,28.58.05c3.22-1.86,5.08-4.26,5.08-6.57Z" style="fill:#FFC100;opacity:0.6000000000000001"></path><path d="M417.51,387c-7.94-4.55-7.93-11.92,0-16.45s20.84-4.52,28.78,0,7.93,11.92,0,16.45S425.45,391.6,417.51,387Z" style="opacity:0.2"></path><path d="M443.26,305.66c-4.1-2.37-9.88-3.18-15.13-2.42v-3.69h-5.56v5.78a5.12,5.12,0,0,1-3.29,4.73,24,24,0,0,0-3,1.45l-.1.06c-4.28,2.5-6.42,5.75-6.42,9l-.09,58.07c0,3.3,2.16,6.58,6.5,9.1,6.25,3.62,15.29,4.63,23.11,3.06-18.09,1.22-22.44-6.46-22.44-12l.09-56.87c0-2,.3-3.58,1.66-4.93a12,12,0,0,0,2.2,1.59c6.2,3.59,16.26,3.61,22.47,0,3.33-1.91,4.88-4.47,4.64-7l-.38-.22A8.87,8.87,0,0,0,443.26,305.66Z" style="opacity:0.15"></path><path d="M447.74,311.56a23.29,23.29,0,0,0-3-1.46,5.12,5.12,0,0,1-3.28-4.74v-5.79H439.4c0,7.72,0,6.1,0,7.74,0,1.79,2.72,2.59,4.49,3.56s7.77,4.15,8.28,6.94.19,7.71.18,13.74-.06,41.29-.07,45.25-1.64,9.56-8.9,12.95a24.58,24.58,0,0,0,4.26-1.9c4.35-2.5,6.52-5.66,6.53-9.12l.08-58.08C454.25,317.36,452.08,314.07,447.74,311.56Z" style="fill:#fff;opacity:0.4"></path><path d="M447.91,307.7v1.65c0,2.34-1.55,4.7-4.67,6.5-6.21,3.57-16.26,3.55-22.47,0a10.69,10.69,0,0,1-3.48-3.05,6,6,0,0,1-1.16-3.44v-1.71a4.26,4.26,0,0,1,.12-1.06c.39-2,1.9-3.92,4.53-5.43A2.53,2.53,0,0,1,421,301c6.24-3.44,16.12-3.38,22.24.16,2.62,1.51,4.15,3.44,4.53,5.42A4.66,4.66,0,0,1,447.91,307.7Z" style="fill:#37474f"></path><path d="M433.31,316.81V311c0-2.31.59.82-3.47.82-3.51,0-6.63-8.13-8.82-10.77a2.53,2.53,0,0,0-.23.12c-2.63,1.51-4.14,3.44-4.53,5.43a4.26,4.26,0,0,0-.12,1.06v1.71a6,6,0,0,0,1.16,3.44,10.69,10.69,0,0,0,3.48,3.05c6.21,3.58,16.26,3.6,22.47,0C438.86,317.57,433.3,319,433.31,316.81Z" style="fill:#263238"></path><path d="M420.78,314.11c-6.2-3.59-6.19-9.4,0-13s16.27-3.56,22.46,0,6.19,9.4,0,13S427,317.7,420.78,314.11Z" style="fill:#FFC100"></path><path d="M447.92,302.19v3.29a4.66,4.66,0,0,1-.12,1.11c-.39,2-1.92,3.9-4.54,5.41a22.11,22.11,0,0,1-9.94,2.62A23.54,23.54,0,0,1,420.77,312a11,11,0,0,1-3.48-3,6,6,0,0,1-1-2.36,4.47,4.47,0,0,1-.12-1.08v-3.37c0-2.35,1.55-4.7,4.66-6.48.27-.16.55-.31.85-.45,6.25-3.12,15.7-2.95,21.62.48C446.38,297.47,447.94,299.83,447.92,302.19Z" style="fill:#37474f"></path><path d="M420.79,308.53c-6.2-3.59-6.2-9.4,0-13s16.27-3.56,22.47,0,6.19,9.4,0,13S427,312.12,420.79,308.53Z" style="fill:#455a64"></path><path d="M417.29,308.92a11,11,0,0,0,3.48,3,23.54,23.54,0,0,0,12.54,2.67h0c0-1.15.69-2-3.47-2.84-3.45-.67-8.56-2.12-10.93-5.9-2.19-3.47-.92-8.05,2.74-10.7-.3.14-.58.29-.85.45-3.11,1.78-4.65,4.13-4.66,6.48v3.37a4.47,4.47,0,0,0,.12,1.08A6,6,0,0,0,417.29,308.92Z" style="fill:#263238"></path></g><path d="M427.22,293.75l0,7.23a2,2,0,0,0,0,.34,2.61,2.61,0,0,0,1.38,1.65,6.71,6.71,0,0,0,3,.82,7.18,7.18,0,0,0,3.82-.79,3.38,3.38,0,0,0,1.07-.91,1.75,1.75,0,0,0,.31-.72,1.24,1.24,0,0,0,0-.33l0-7.25a2.39,2.39,0,0,0-1.4-2l-.26-.13a7.56,7.56,0,0,0-6.58.1A2.38,2.38,0,0,0,427.22,293.75Z" style="fill:#FFC100"></path><path d="M427.22,293.75l0,7.23a2,2,0,0,0,0,.34,2.61,2.61,0,0,0,1.38,1.65,6.71,6.71,0,0,0,3,.82,7.18,7.18,0,0,0,3.82-.79,3.38,3.38,0,0,0,1.07-.91,1.75,1.75,0,0,0,.31-.72,1.24,1.24,0,0,0,0-.33l0-7.25a2.39,2.39,0,0,0-1.4-2l-.26-.13a7.56,7.56,0,0,0-6.58.1A2.38,2.38,0,0,0,427.22,293.75Z" style="opacity:0.35000000000000003"></path><path d="M427.22,293.72c0,1.54,2.15,2.8,4.82,2.81s4.85-1.22,4.85-2.76-2.15-2.79-4.82-2.8S427.23,292.19,427.22,293.72Z" style="fill:#FFC100"></path><path d="M430.34,293.74c0,.55.76,1,1.71,1s1.72-.44,1.72-1-.76-1-1.71-1S430.34,293.19,430.34,293.74Z" style="fill:#FFC100;opacity:0.5"></path><path d="M430.34,293.74c0,.55.76,1,1.71,1s1.72-.44,1.72-1-.76-1-1.71-1S430.34,293.19,430.34,293.74Z" style="opacity:0.30000000000000004"></path><path d="M426,293l0,2.45a2.15,2.15,0,0,0,0,.43,3.24,3.24,0,0,0,1.71,2.06,8.26,8.26,0,0,0,3.77,1,8.93,8.93,0,0,0,4.77-1,4.24,4.24,0,0,0,1.33-1.14,2.4,2.4,0,0,0,.39-.89,1.48,1.48,0,0,0,.05-.41l0-2.49a3,3,0,0,0-1.75-2.48l-.32-.17a9.49,9.49,0,0,0-8.21.13A3,3,0,0,0,426,293Z" style="fill:#FFC100"></path><path d="M426,293l0,2.45a2.15,2.15,0,0,0,0,.43,3.24,3.24,0,0,0,1.71,2.06,8.26,8.26,0,0,0,3.77,1,8.93,8.93,0,0,0,4.77-1,4.24,4.24,0,0,0,1.33-1.14,2.4,2.4,0,0,0,.39-.89,1.48,1.48,0,0,0,.05-.41l0-2.49a3,3,0,0,0-1.75-2.48l-.32-.17a9.49,9.49,0,0,0-8.21.13A3,3,0,0,0,426,293Z" style="opacity:0.2"></path><path d="M426,292.92c0,1.92,2.68,3.49,6,3.51s6-1.52,6-3.44-2.68-3.48-6-3.5S426,291,426,292.92Z" style="fill:#FFC100"></path><path d="M429.92,293c0,.68.95,1.23,2.13,1.24s2.15-.54,2.15-1.22-.95-1.24-2.13-1.24S429.92,292.27,429.92,293Z" style="fill:#FFC100;opacity:0.5"></path><path d="M429.92,293c0,.68.95,1.23,2.13,1.24s2.15-.54,2.15-1.22-.95-1.24-2.13-1.24S429.92,292.27,429.92,293Z" style="opacity:0.30000000000000004"></path></g></g><g id="freepik--Towel--inject-410"><g id="freepik--towel--inject-410"><path d="M92.24,407v7.48a3.29,3.29,0,0,0,1.64,2.85l53.6,30.94a3.16,3.16,0,0,0,3.16.34l69.12-39.94a2.74,2.74,0,0,0,1.16-2.52,9.29,9.29,0,0,0-4.33-7.19L161.35,367Z" style="fill:#FFC100"></path><g style="opacity:0.30000000000000004"><path d="M92.24,407v7.48a3.29,3.29,0,0,0,1.64,2.85l53.6,30.94a3.16,3.16,0,0,0,3.16.34l69.12-39.94a2.74,2.74,0,0,0,1.16-2.52,9.29,9.29,0,0,0-4.33-7.19L161.35,367Z" style="fill:#fff"></path></g><polygon points="182.98 379.52 113.86 419.45 103.55 413.5 172.65 373.56 182.98 379.52" style="fill:#455a64"></polygon><path d="M147.48,438.86,92.24,407v7.48a3.29,3.29,0,0,0,1.64,2.85l53.6,30.94c2.39,1.38,4.33.4,4.33-2.19A9.29,9.29,0,0,0,147.48,438.86Z" style="fill:#FFC100;opacity:0.6000000000000001"></path><path d="M145,440.53a3.1,3.1,0,0,1,1.44,2.39c0,.87-.65,1.19-1.44.73L92.24,413.22v-3.13Z" style="opacity:0.2"></path></g></g><g id="freepik--Character--inject-410"><g id="freepik--character--inject-410"><g id="freepik--Top--inject-410"><g id="freepik--Hair--inject-410"><path d="M122.58,104.93c-1.42-2.79-1.5-8.14.74-10.31s4.56-2.91,7.79-3.35c6.14-.85,6.11-5.31,6.35-6.75.91-5.6,3-8.66,6.3-10.46,8.9-4.84,30.69-2.62,28.15,11.81-.38,2.15-1.42,4.42-.51,6.4a7,7,0,0,0,1.81,2.13c3.43,3,7.12,5.87,9.66,9.66s3.75,8.88,1.69,13c-1.93,3.84-6.37,6.16-7.64,10.27-1.75,5.65,3.32,12,1,17.4-1.89,4.34-5.64,4.83-9.67,4.88-4.67.05-7,5.48-12.15,4.42-2.26-.46-4.6-.12-6.9,0a19.55,19.55,0,0,1-8.35-1.19,10.63,10.63,0,0,1-6-5.7c-1-2.42-.81-5.28-2.29-7.43-1.26-1.82-3.27-3-4.64-4.72-2-2.49-2.55-4.38-2.54-6.21,0-.73.25-3.46,1.84-4.52a4.09,4.09,0,0,0-3.3,3.27,12,12,0,0,0,.22,4.92A10.32,10.32,0,0,1,121.87,117c1.22-1.43,2.92-2.7,3.18-4.57C125.45,109.43,124,107.66,122.58,104.93Z" style="fill:#263238"></path><path d="M157.3,71.3c-8.68,3.36-10.12,19.16-1,27.19S170.47,65.3,157.3,71.3Z" style="fill:#FFC100"></path></g><g id="freepik--Arm--inject-410"><path d="M216.23,150.64c18.42,2.7,22.57,7.57,37.48,23,17.5,18.14,33.47,34.4,33.47,34.4s17.87.63,28.11.84c9.67.2,15.75-.28,19.16-.47,2.64-.15,14.36-3.6,16.09-3.79,4.88-.54,12.13,37.51,12.13,37.51a24.4,24.4,0,0,1-21.22-3.84,8.22,8.22,0,0,0-6.29-1.16c-9.87,1.64-20.67,3.2-28.74,4.12-17.66,2-30,4.23-36.6-1.45S225.35,200,225.35,200Z" style="fill:#b16668"></path><g id="freepik--massage-gun--inject-410"><path d="M358,183.92c.64-1.8,2.47-3.16,5.33-3.68,5.72-1,13.41,1.71,17.17,6.15,1.88,2.22,2.43,4.43,1.78,6.23L365.67,238.9c-.64,1.79-2.47,3.16-5.33,3.68-5.72,1-13.41-1.72-17.17-6.15-1.88-2.22-2.43-4.44-1.78-6.23Z" style="fill:#263238"></path><path d="M363.3,180.24c5.72-1,13.41,1.71,17.17,6.15,1.88,2.22,2.43,4.43,1.78,6.23L379,201.77a10.3,10.3,0,0,1-3.35,1.18c-6.36,1.15-14.91-1.91-19.08-6.84a10.3,10.3,0,0,1-1.85-3l3.28-9.15C358.61,182.12,360.44,180.76,363.3,180.24Z"></path><path d="M380.47,186.39c1.88,2.22,2.43,4.44,1.78,6.23s-2.47,3.16-5.33,3.68c-5.72,1-13.41-1.71-17.17-6.15-1.88-2.22-2.42-4.44-1.78-6.23s2.47-3.16,5.33-3.68C369,179.2,376.71,182,380.47,186.39Z" style="fill:#455a64"></path><path d="M344,223l-1,2.76c-.65,1.79-.1,4,1.78,6.23,3.76,4.43,11.45,7.19,17.17,6.15,2.86-.52,4.69-1.89,5.33-3.68l1-2.76c-.64,1.8-2.47,3.17-5.33,3.69-5.73,1-13.42-1.72-17.18-6.16C343.88,227,343.34,224.75,344,223Z" style="fill:#455a64"></path><path d="M372.59,191.6c-2.09.38-4.42-.62-6.51-3.09-4.18-4.92-5.8-13.85-3.62-19.94,1.09-3,2.92-4.79,5-5.17l26.1-4.71c2.09-.37,4.42.63,6.51,3.09,4.18,4.93,5.8,13.86,3.62,19.94-1.09,3-2.92,4.8-5,5.18Z" style="fill:#455a64"></path><path d="M404.67,175.5,363,183.06a24.31,24.31,0,0,1-1.26-5l42.33-7.68A24.47,24.47,0,0,1,404.67,175.5Z" style="fill:#fff;opacity:0.05"></path><path d="M404.43,178.8a16,16,0,0,1-.73,2.92c-1.09,3-2.92,4.8-5,5.18l-26.1,4.7c-2.09.38-4.42-.62-6.51-3.09a15.66,15.66,0,0,1-1.72-2.49Z" style="fill:#37474f"></path><path d="M383.61,160.49c2.09-.38,4.42.62,6.51,3.08,4.18,4.93,5.8,13.86,3.62,20-1.09,3-2.92,4.79-5,5.17l4.17-.75c2.09-.38,3.92-2.13,5-5.18,2.18-6.08.56-15-3.62-19.94-2.09-2.46-4.42-3.46-6.51-3.08Z" style="fill:#FFC100"></path><path d="M398.64,179.84a15.79,15.79,0,0,1-.73,2.92c-1.09,3.05-2.92,4.8-5,5.18l-4.17.75c2.09-.38,3.92-2.13,5-5.17a15.9,15.9,0,0,0,.73-2.93Z" style="opacity:0.1"></path><path d="M398.28,171.39a24.47,24.47,0,0,1,.6,5.16l-4.17.75a24.43,24.43,0,0,0-.59-5.15Z" style="fill:#fff;opacity:0.05"></path><path d="M362.46,168.57c1.09-3,2.93-4.79,5-5.17s4.42.62,6.5,3.08c4.18,4.93,5.8,13.86,3.62,20-1.09,3-2.92,4.79-5,5.17s-4.42-.62-6.51-3.09C361.9,183.59,360.28,174.66,362.46,168.57Z" style="fill:#37474f"></path><path d="M369.14,148.5c.71-2,2.74-3.51,5.92-4.09,6.36-1.15,14.9,1.91,19.08,6.84,2.09,2.46,2.69,4.93,2,6.92-.44,1.21-13,36.3-13.44,37.51-.72,2-2.75,3.51-5.93,4.09-6.36,1.16-14.9-1.9-19.08-6.83-2.09-2.47-2.69-4.93-2-6.93C356.13,184.8,368.7,149.71,369.14,148.5Z" style="fill:#37474f"></path><path d="M396.12,158.17q-1.59,4.72-3.25,9.42L389.56,177l-3.41,9.36q-1.69,4.69-3.47,9.34,1.57-4.73,3.25-9.42l3.3-9.4,3.42-9.35Q394.33,162.82,396.12,158.17Z" style="fill:#263238"></path><path d="M394.14,151.25c2.09,2.46,2.69,4.93,2,6.92s-2.75,3.51-5.93,4.09c-6.36,1.15-14.9-1.91-19.08-6.83-2.09-2.47-2.69-4.93-2-6.93s2.75-3.51,5.93-4.09C381.42,143.26,390,146.32,394.14,151.25Z" style="fill:#455a64"></path><path d="M343.1,196.92c-2.09.38-4.42-.62-6.51-3.08-4.18-4.93-5.8-13.86-3.62-19.94,1.09-3.05,2.92-4.8,5-5.18l26.1-4.7c2.09-.38,4.42.62,6.51,3.08,4.18,4.93,5.8,13.86,3.62,19.94-1.09,3-2.92,4.8-5,5.18Z" style="fill:#455a64"></path><path d="M375.18,180.85l-33.05,6-.92-5.1,33.38-6.06A24.45,24.45,0,0,1,375.18,180.85Z" style="fill:#fff;opacity:0.05"></path><path d="M374.94,184.11a15.9,15.9,0,0,1-.73,2.93c-1.09,3-2.92,4.8-5,5.18l-26.1,4.7c-2.09.38-4.42-.62-6.51-3.08a15.65,15.65,0,0,1-1.72-2.51Z" style="fill:#37474f"></path><path d="M370.59,167.1a19.84,19.84,0,0,1,4.24,9.2,21.51,21.51,0,0,1-.26,10.18,10,10,0,0,1-2.58,4.43,5.46,5.46,0,0,1-2.24,1.31c-.85.21-1.68.31-2.52.47-3.35.6-6.71,1.16-10.07,1.7,3.34-.67,6.68-1.32,10-1.93.82-.17,1.69-.28,2.48-.5a5.21,5.21,0,0,0,2.12-1.26,9.6,9.6,0,0,0,2.44-4.32,21.13,21.13,0,0,0,.37-10,23.44,23.44,0,0,0-1.45-4.86A17.7,17.7,0,0,0,370.59,167.1Z" style="fill:#263238"></path><path d="M333,173.89c1.09-3,2.92-4.79,5-5.17s4.41.62,6.5,3.09c4.18,4.93,5.8,13.85,3.62,19.94-1.09,3-2.92,4.79-5,5.17s-4.42-.62-6.51-3.08C332.41,188.91,330.79,180,333,173.89Z" style="fill:#263238"></path><path d="M337.43,193.91c-1.5.27-3.17-.44-4.66-2.21a16,16,0,0,1-2.6-14.28c.78-2.18,2.1-3.44,3.59-3.71l4-.7c1.49-.27,3.16.44,4.66,2.21A16,16,0,0,1,345,189.5c-.78,2.18-2.09,3.44-3.58,3.71Z" style="fill:#455a64"></path><path d="M345.7,184.69l-15.26,2.77a18.06,18.06,0,0,1-.88-4.14l15.51-2.82A17.14,17.14,0,0,1,345.7,184.69Z" style="fill:#fff;opacity:0.05"></path><path d="M345.55,187.4a11.53,11.53,0,0,1-.53,2.1c-.78,2.18-2.09,3.44-3.58,3.71l-4,.7c-1.5.27-3.17-.44-4.66-2.21a11.59,11.59,0,0,1-1.24-1.79C340.89,188.22,335.83,189.15,345.55,187.4Z" style="fill:#37474f"></path><path d="M330.17,177.42c.78-2.18,2.1-3.44,3.59-3.71s3.16.45,4.66,2.21A16.05,16.05,0,0,1,341,190.2c-.78,2.18-2.09,3.44-3.58,3.71s-3.17-.44-4.66-2.21A16,16,0,0,1,330.17,177.42Z" style="fill:#263238"></path><path d="M380.93,165.69h0a.52.52,0,0,0,.38.69,19.38,19.38,0,0,0,7.58.3,11.61,11.61,0,0,0,2.65-.8.49.49,0,0,0,.28-.3.52.52,0,0,0-.71-.66,10.52,10.52,0,0,1-2.41.71,18.18,18.18,0,0,1-7.16-.27A.52.52,0,0,0,380.93,165.69Zm-.88,2.46a.52.52,0,0,0,.38.69,19.57,19.57,0,0,0,7.58.3,11.61,11.61,0,0,0,2.65-.8.49.49,0,0,0,.28-.3h0a.52.52,0,0,0-.71-.66,10.52,10.52,0,0,1-2.41.71,18.18,18.18,0,0,1-7.16-.27A.52.52,0,0,0,380.05,168.15Zm-.88,2.46h0a.52.52,0,0,0,.38.69,19.57,19.57,0,0,0,7.58.3,11.76,11.76,0,0,0,2.65-.8.52.52,0,0,0,.28-.3.53.53,0,0,0-.71-.66,10.67,10.67,0,0,1-2.41.71,18.18,18.18,0,0,1-7.16-.27A.52.52,0,0,0,379.17,170.61Z" style="fill:#263238"></path><path d="M335.66,191.67h0a3.9,3.9,0,0,0,2.73-2.82,12.21,12.21,0,0,0-2-10.86,3.88,3.88,0,0,0-3.54-1.68h0a7.81,7.81,0,0,0,2.79,15.36Z" style="fill:#455a64"></path><path d="M338.89,184.8a25,25,0,0,1-11.34.44c2,.31,9-1.66,11.1-2.27A14.33,14.33,0,0,1,338.89,184.8Z" style="fill:#fff;opacity:0.05"></path><path d="M326.59,185.38a7.7,7.7,0,0,1,.07-3.14,4.06,4.06,0,0,0,1.83,4.34c3,2,6.3,1.61,10.26.89a10,10,0,0,1-.36,1.38,3.9,3.9,0,0,1-2.73,2.82h0A7.81,7.81,0,0,1,326.59,185.38Z" style="fill:#37474f"></path><path d="M321.62,190.61a2.16,2.16,0,0,1-2-.94,6.83,6.83,0,0,1-1.1-6.07,2.16,2.16,0,0,1,1.52-1.57L328,180.6a2.16,2.16,0,0,1,2,.94,6.81,6.81,0,0,1,1.1,6.06,2.17,2.17,0,0,1-1.53,1.58Z" style="fill:#455a64"></path><path d="M331.31,186.71a5,5,0,0,1-.22.89,2.17,2.17,0,0,1-1.53,1.58l-7.94,1.43a2.16,2.16,0,0,1-2-.94,4.63,4.63,0,0,1-.52-.76Z" style="fill:#37474f"></path><path d="M330,181.54a6,6,0,0,1,1.29,2.8,6.59,6.59,0,0,1-.08,3.09,3,3,0,0,1-.79,1.35,1.62,1.62,0,0,1-.68.4c-.26.07-.51.09-.77.14l-3.06.52,3.05-.59c.25-.05.52-.08.76-.15a1.61,1.61,0,0,0,.64-.38,2.94,2.94,0,0,0,.74-1.32,6.87,6.87,0,0,0-1.1-5.86Z" style="fill:#263238"></path><path d="M318.54,183.6A1.88,1.88,0,0,1,322,183a6.77,6.77,0,0,1,1.1,6.07,1.88,1.88,0,0,1-3.5.63A6.83,6.83,0,0,1,318.54,183.6Z" style="fill:#263238"></path><circle cx="316.2" cy="187.08" r="11.46" transform="translate(-50.32 161.66) rotate(-26.64)" style="fill:#263238"></circle><path d="M316.09,178.43a2.71,2.71,0,0,1,1.45,2.44,3,3,0,0,1-1.13,1.92,14.86,14.86,0,0,1-1.93,1.21,16.17,16.17,0,0,0-4.12,3.43c-.64.74-1.39,1.63-2.36,1.56a1.85,1.85,0,0,1-1.43-1.05,3.58,3.58,0,0,1-.31-1.8,10.11,10.11,0,0,1,3.06-6.33A5.69,5.69,0,0,1,316.09,178.43Z" style="fill:#37474f"></path><path d="M316.3,194.75c7.78-1.21,11.17-9.76,7.88-15.9a11.46,11.46,0,1,1-19.39,9.41S307.73,196.08,316.3,194.75Z"></path><path d="M370.14,188.16a1.13,1.13,0,0,1,.09,1.11,3.48,3.48,0,0,1-2.4,2,1.1,1.1,0,0,1-1.08-.27l-.75-.88a1.1,1.1,0,0,1-.09-1.11,3.43,3.43,0,0,1,2.4-2,1.1,1.1,0,0,1,1.08.27Z" style="fill:#FFC100"></path><path d="M367.83,191.3a1,1,0,0,1-1.17-1.38,3.46,3.46,0,0,1,2.39-2,1,1,0,0,1,1.18,1.38A3.48,3.48,0,0,1,367.83,191.3Z" style="opacity:0.2"></path><path d="M362.48,189.56a1.1,1.1,0,0,1,.09,1.11,3.48,3.48,0,0,1-2.4,2,1.1,1.1,0,0,1-1.08-.27l-.75-.89a1.13,1.13,0,0,1-.09-1.11,3.48,3.48,0,0,1,2.4-2,1.1,1.1,0,0,1,1.08.27Z" style="fill:#FFC100"></path><path d="M360.17,192.7a1.1,1.1,0,0,1-1.08-.27,1.12,1.12,0,0,1-.09-1.12,3.44,3.44,0,0,1,2.4-2,1,1,0,0,1,1.17,1.38A3.48,3.48,0,0,1,360.17,192.7Z" style="opacity:0.2"></path></g><path d="M375.16,212.45l-1.66,4.62a19.26,19.26,0,0,1-3.72,1.66c-2.54.9-5.24.86-9.18-.36s-7.31-.65-8.55,1,2,4.22,2,4.22a25.52,25.52,0,0,0-5.51-1.24c-1.8,0-3.94,2.36-2.59,4.61s2.81,4.28,2.81,4.28a5.77,5.77,0,0,0-1.73,1.69c-.74,1.12,1.62,4.5,1.62,4.5a30.41,30.41,0,0,0,7.74,6.64c4.42,2.48,12.63-1.2,15.22-2.74a6.25,6.25,0,0,0,2.77-3.41c2.26-1.72,2-5.44,1.46-6.34,1.94-1.27,2.22-5,1.42-7.47C379.75,220.87,379.25,218.55,375.16,212.45Z" style="fill:#b16668"></path><path d="M341.38,211.94c7.16-1.49,13.92.41,15.62,2.31s2.85,9,3.4,12.33,1,5.79.57,6.29c-1,1.18-5.45,1.53-7.88-2.89s-3.65-8.59-5-8.47c-5.82,3.06-11,5.15-11,5.15Z" style="fill:#b16668"></path><path d="M357,214.25a6.74,6.74,0,0,1,1.29,2.07,23.61,23.61,0,0,1,.87,2.3c.5,1.55.89,3.14,1.23,4.72s.63,3.19.93,4.78c.14.8.27,1.6.37,2.42.05.41.1.83.12,1.27a6,6,0,0,1,0,.71,1.92,1.92,0,0,1-.1.46,1.45,1.45,0,0,1-.18.31,1.29,1.29,0,0,1-.16.17,3,3,0,0,1-1.38.7,5.08,5.08,0,0,1-1.38.15,6.48,6.48,0,0,1-2.61-.64,7.79,7.79,0,0,1-3.52-3.75c-.74-1.46-1.35-3-2-4.46-.3-.76-.59-1.51-.94-2.23a7,7,0,0,0-.57-1,1.31,1.31,0,0,0-.92-.68,1.4,1.4,0,0,1,1.08.55,8.7,8.7,0,0,1,.73,1c.45.69.84,1.41,1.23,2.12.76,1.43,1.5,2.86,2.3,4.24a6.88,6.88,0,0,0,3.13,3.07,5.14,5.14,0,0,0,2.07.48,2.74,2.74,0,0,0,1.78-.49c0,.13.08-.26.06-.62a9.19,9.19,0,0,0-.09-1.15c-.08-.78-.21-1.58-.32-2.37l-.69-4.79c-.25-1.59-.49-3.18-.83-4.75A13.66,13.66,0,0,0,357,214.25Z" style="fill:#9a4a4d"></path><path d="M343.72,223.68s-1.65,3.54-8.85,3a7.13,7.13,0,0,0,7.75.06Z" style="fill:#9a4a4d"></path><path d="M377.11,224.07a11.47,11.47,0,0,1-3.9,2.46,24.69,24.69,0,0,1-4.39,1.41c-.76.15-1.51.28-2.3.36a7.17,7.17,0,0,1-6.29-2.84A10.26,10.26,0,0,0,364.3,227a6.84,6.84,0,0,0,2.07,0c.71-.1,1.45-.24,2.16-.41,1.45-.31,2.89-.68,4.33-1.07A28.79,28.79,0,0,0,377.11,224.07Z" style="fill:#9a4a4d"></path><path d="M375.86,231.56a11,11,0,0,1-3.4,2.34,17.77,17.77,0,0,1-3.93,1.3,13,13,0,0,1-2.11.24,6.73,6.73,0,0,1-2.15-.4,14.41,14.41,0,0,1-3.67-1.86c1.34.26,2.65.59,3.94.82a7.85,7.85,0,0,0,1.84.14,16.2,16.2,0,0,0,1.88-.29c1.28-.25,2.55-.59,3.82-1A35.49,35.49,0,0,0,375.86,231.56Z" style="fill:#9a4a4d"></path><path d="M374.4,237.9a17.51,17.51,0,0,1-6.8,3,20.4,20.4,0,0,1-3.74.51,12.15,12.15,0,0,1-3.89-.39l-.51-.21-.42-.23c-.28-.15-.56-.3-.83-.46-.53-.33-1.08-.65-1.59-1a30.21,30.21,0,0,1-2.92-2.34,31.79,31.79,0,0,1-4.92-5.58c1.81,1.69,3.68,3.26,5.61,4.75,1,.73,1.94,1.45,3,2.08.5.34,1,.64,1.54.94l.79.43.39.2.34.14a11.81,11.81,0,0,0,3.42.39,26.94,26.94,0,0,0,3.58-.26A25.66,25.66,0,0,0,374.4,237.9Z" style="fill:#9a4a4d"></path></g><path id="freepik--Lines--inject-410" d="M328.54,195.77a15.14,15.14,0,0,1-17.62,5.41,1.41,1.41,0,0,0-1.81.65,1.31,1.31,0,0,0,.72,1.75,17.71,17.71,0,0,0,20.95-6.44,1.29,1.29,0,0,0-.38-1.84A1.4,1.4,0,0,0,328.54,195.77Zm-26.47-19.56a1.24,1.24,0,0,0,.33,1.82,1.49,1.49,0,0,0,1.92-.42,15.08,15.08,0,0,1,16.64-5,1.47,1.47,0,0,0,1.84-.7,1.25,1.25,0,0,0-.74-1.7,17.7,17.7,0,0,0-20,6Zm26.47,19.56a15.14,15.14,0,0,1-17.62,5.41,1.41,1.41,0,0,0-1.81.65,1.31,1.31,0,0,0,.72,1.75,17.71,17.71,0,0,0,20.95-6.44,1.29,1.29,0,0,0-.38-1.84A1.4,1.4,0,0,0,328.54,195.77Zm-26.47-19.56a1.24,1.24,0,0,0,.33,1.82,1.49,1.49,0,0,0,1.92-.42,15.08,15.08,0,0,1,16.64-5,1.47,1.47,0,0,0,1.84-.7,1.25,1.25,0,0,0-.74-1.7,17.7,17.7,0,0,0-20,6Zm26.47,19.56a15.14,15.14,0,0,1-17.62,5.41,1.41,1.41,0,0,0-1.81.65,1.31,1.31,0,0,0,.72,1.75,17.71,17.71,0,0,0,20.95-6.44,1.29,1.29,0,0,0-.38-1.84A1.4,1.4,0,0,0,328.54,195.77Zm-26.47-19.56a1.24,1.24,0,0,0,.33,1.82,1.49,1.49,0,0,0,1.92-.42,15.08,15.08,0,0,1,16.64-5,1.47,1.47,0,0,0,1.84-.7,1.25,1.25,0,0,0-.74-1.7,17.7,17.7,0,0,0-20,6ZM295.29,172a1.28,1.28,0,0,0,.35,1.84,1.43,1.43,0,0,0,1.89-.45,23,23,0,0,1,26.75-8,1.44,1.44,0,0,0,1.83-.68,1.28,1.28,0,0,0-.72-1.73,25.71,25.71,0,0,0-30.1,9.06Zm40,27.91a23,23,0,0,1-27.71,8.47,1.38,1.38,0,0,0-1.81.64,1.31,1.31,0,0,0,.71,1.75,25.69,25.69,0,0,0,31-9.47,1.31,1.31,0,0,0-.38-1.86A1.37,1.37,0,0,0,335.31,199.94Zm-6.77-4.17a15.14,15.14,0,0,1-17.62,5.41,1.41,1.41,0,0,0-1.81.65,1.31,1.31,0,0,0,.72,1.75,17.71,17.71,0,0,0,20.95-6.44,1.29,1.29,0,0,0-.38-1.84A1.4,1.4,0,0,0,328.54,195.77Zm-26.47-19.56a1.24,1.24,0,0,0,.33,1.82,1.49,1.49,0,0,0,1.92-.42,15.08,15.08,0,0,1,16.64-5,1.47,1.47,0,0,0,1.84-.7,1.25,1.25,0,0,0-.74-1.7,17.7,17.7,0,0,0-20,6Zm26.47,19.56a15.14,15.14,0,0,1-17.62,5.41,1.41,1.41,0,0,0-1.81.65,1.31,1.31,0,0,0,.72,1.75,17.71,17.71,0,0,0,20.95-6.44,1.29,1.29,0,0,0-.38-1.84A1.4,1.4,0,0,0,328.54,195.77Zm-26.47-19.56a1.24,1.24,0,0,0,.33,1.82,1.49,1.49,0,0,0,1.92-.42,15.08,15.08,0,0,1,16.64-5,1.47,1.47,0,0,0,1.84-.7,1.25,1.25,0,0,0-.74-1.7,17.7,17.7,0,0,0-20,6Zm26.47,19.56a15.14,15.14,0,0,1-17.62,5.41,1.41,1.41,0,0,0-1.81.65,1.31,1.31,0,0,0,.72,1.75,17.71,17.71,0,0,0,20.95-6.44,1.29,1.29,0,0,0-.38-1.84A1.4,1.4,0,0,0,328.54,195.77Zm-26.47-19.56a1.24,1.24,0,0,0,.33,1.82,1.49,1.49,0,0,0,1.92-.42,15.08,15.08,0,0,1,16.64-5,1.47,1.47,0,0,0,1.84-.7,1.25,1.25,0,0,0-.74-1.7,17.7,17.7,0,0,0-20,6Zm26.47,19.56a15.14,15.14,0,0,1-17.62,5.41,1.41,1.41,0,0,0-1.81.65,1.31,1.31,0,0,0,.72,1.75,17.71,17.71,0,0,0,20.95-6.44,1.29,1.29,0,0,0-.38-1.84A1.4,1.4,0,0,0,328.54,195.77Zm-26.47-19.56a1.24,1.24,0,0,0,.33,1.82,1.49,1.49,0,0,0,1.92-.42,15.08,15.08,0,0,1,16.64-5,1.47,1.47,0,0,0,1.84-.7,1.25,1.25,0,0,0-.74-1.7,17.7,17.7,0,0,0-20,6ZM295.29,172a1.28,1.28,0,0,0,.35,1.84,1.43,1.43,0,0,0,1.89-.45,23,23,0,0,1,26.75-8,1.44,1.44,0,0,0,1.83-.68,1.28,1.28,0,0,0-.72-1.73,25.71,25.71,0,0,0-30.1,9.06Zm40,27.91a23,23,0,0,1-27.71,8.47,1.38,1.38,0,0,0-1.81.64,1.31,1.31,0,0,0,.71,1.75,25.69,25.69,0,0,0,31-9.47,1.31,1.31,0,0,0-.38-1.86A1.37,1.37,0,0,0,335.31,199.94Zm-6.77-4.17a15.14,15.14,0,0,1-17.62,5.41,1.41,1.41,0,0,0-1.81.65,1.31,1.31,0,0,0,.72,1.75,17.71,17.71,0,0,0,20.95-6.44,1.29,1.29,0,0,0-.38-1.84A1.4,1.4,0,0,0,328.54,195.77Zm-26.47-19.56a1.24,1.24,0,0,0,.33,1.82,1.49,1.49,0,0,0,1.92-.42,15.08,15.08,0,0,1,16.64-5,1.47,1.47,0,0,0,1.84-.7,1.25,1.25,0,0,0-.74-1.7,17.7,17.7,0,0,0-20,6Zm39.59,27.65a30.48,30.48,0,0,1-37.16,11.32,1.38,1.38,0,0,0-1.81.64,1.33,1.33,0,0,0,.71,1.76,33.13,33.13,0,0,0,40.49-12.35,1.31,1.31,0,0,0-.38-1.85A1.37,1.37,0,0,0,341.66,203.86Zm-14.27-45.28a1.41,1.41,0,0,0,1.82-.66,1.31,1.31,0,0,0-.72-1.74,33.1,33.1,0,0,0-39.56,11.93,1.29,1.29,0,0,0,.37,1.84,1.42,1.42,0,0,0,1.88-.46,30.46,30.46,0,0,1,36.21-10.91Zm1.15,37.19a15.14,15.14,0,0,1-17.62,5.41,1.41,1.41,0,0,0-1.81.65,1.31,1.31,0,0,0,.72,1.75,17.71,17.71,0,0,0,20.95-6.44,1.29,1.29,0,0,0-.38-1.84A1.4,1.4,0,0,0,328.54,195.77Zm-26.47-19.56a1.24,1.24,0,0,0,.33,1.82,1.49,1.49,0,0,0,1.92-.42,15.08,15.08,0,0,1,16.64-5,1.47,1.47,0,0,0,1.84-.7,1.25,1.25,0,0,0-.74-1.7,17.7,17.7,0,0,0-20,6Zm26.47,19.56a15.14,15.14,0,0,1-17.62,5.41,1.41,1.41,0,0,0-1.81.65,1.31,1.31,0,0,0,.72,1.75,17.71,17.71,0,0,0,20.95-6.44,1.29,1.29,0,0,0-.38-1.84A1.4,1.4,0,0,0,328.54,195.77Zm-26.47-19.56a1.24,1.24,0,0,0,.33,1.82,1.49,1.49,0,0,0,1.92-.42,15.08,15.08,0,0,1,16.64-5,1.47,1.47,0,0,0,1.84-.7,1.25,1.25,0,0,0-.74-1.7,17.7,17.7,0,0,0-20,6ZM295.29,172a1.28,1.28,0,0,0,.35,1.84,1.43,1.43,0,0,0,1.89-.45,23,23,0,0,1,26.75-8,1.44,1.44,0,0,0,1.83-.68,1.28,1.28,0,0,0-.72-1.73,25.71,25.71,0,0,0-30.1,9.06Zm40,27.91a23,23,0,0,1-27.71,8.47,1.38,1.38,0,0,0-1.81.64,1.31,1.31,0,0,0,.71,1.75,25.69,25.69,0,0,0,31-9.47,1.31,1.31,0,0,0-.38-1.86A1.37,1.37,0,0,0,335.31,199.94Zm-6.77-4.17a15.14,15.14,0,0,1-17.62,5.41,1.41,1.41,0,0,0-1.81.65,1.31,1.31,0,0,0,.72,1.75,17.71,17.71,0,0,0,20.95-6.44,1.29,1.29,0,0,0-.38-1.84A1.4,1.4,0,0,0,328.54,195.77Zm-26.47-19.56a1.24,1.24,0,0,0,.33,1.82,1.49,1.49,0,0,0,1.92-.42,15.08,15.08,0,0,1,16.64-5,1.47,1.47,0,0,0,1.84-.7,1.25,1.25,0,0,0-.74-1.7,17.7,17.7,0,0,0-20,6Z" style="fill:#e0e0e0"></path><g id="freepik--Chest--inject-410"><path d="M239,222.35,138.24,203.84c2.92,30.63,8.64,42.43,11.36,59.65,1.15,7.39,36.65,5.72,47.55,2.08,35.49-11.87,42-25.87,42-25.87Z" style="fill:#b16668"></path><path d="M145.55,149.39c5.76,6.2,7,15.24,7.38,24.15s-1.54,38.6-16.43,42.61L139,228.07c20.07,6.73,65.52,16.93,100-5.72,20.21-19,8-40.63-.34-48.78s-11.85-15.65-22.45-22.93l-8.57-1.76s-32.64.48-49.15-1.36Z" style="fill:#37474f"></path></g><g id="freepik--arm--inject-410"><path id="freepik--arm--inject-410" d="M145.55,149.39c-22.1,4.49-27.67,23.52-28.85,56.9s-3.4,58.41-3.4,58.41c-.44,5-1,10-1.32,15-.71,10.08-1.18,20.2-2.41,30.23-.42,3.41-.7,7.89-3,10.7a18.28,18.28,0,0,1-5.86,4.83c-2.39,1.21-3.09,1.22-8,2.19a36.73,36.73,0,0,0-8.11,1.9c-1.55.62-3,1.65-4.7,1.84s-3.22-.09-4.83.51a11.68,11.68,0,0,0-4.29,2.91,26.42,26.42,0,0,1-5.91,4.16c-5-.09-6.16,2.47-4.17,4.75,2.31,2.66,6.88,3.54,10.17,3.81,9.45.78,14.91,1.11,24.28-.39,3.14-.5,7.69-1.84,10.31.76s-2.78,3.39-4.38,3.8c-3.35.86-4.48,1.25-6.79,2.84-5.15,3.54-4.24,10.58,2.24,7.91,4.32-1.79,5.92-1.23,10.47-2.08s9.73-1.87,13.31-4.93a45.72,45.72,0,0,0,4.27-4.62c1.77-2,4.58-3.78,5.66-6.28a28,28,0,0,0,1.84-11.45,24.62,24.62,0,0,1,.5-6.38c.82-3.45.77-6.81,1.53-10.28s1.64-7,2.52-10.52c1.9-7.51,3.94-15,5.77-22.51,1.45-5.94,3-12,3.38-18.14.9-13.51,5.28-53.88,5.28-53.88S160.94,164.68,145.55,149.39Z" style="fill:#b16668"></path><path d="M136.61,305.88c.84-3.9,1.77-7.79,2.65-11.69L142,282.54c.87-3.9,1.82-7.77,2.43-11.68s.72-7.88,1.09-11.88c.75-8,1.53-15.92,2.45-23.85s1.89-15.87,3-23.78l-.93,12-1,11.93c-.7,8-1.5,15.91-2.14,23.86l-.5,6c-.14,2-.39,4-.72,6-.68,4-1.61,7.87-2.64,11.73C141,290.51,138.87,298.21,136.61,305.88Z" style="fill:#9a4a4d"></path></g><g id="freepik--Head--inject-410"><path d="M242.21,69.5c-.17-10.68-12-12.66-15.16-12.69-4.36-.05-9.08-3-11.51-6.68a15.14,15.14,0,0,0-14-6.19c-8.71,1.11-7.21,4.89-14.65,6.38-6.64,1.33-11.09-1.36-17.59,3.41-3.9,2.87-6.2,8.37-6.08,13.26-4.69,2.12-12.55,17.35-5.89,36,3.42,9.6,8.38,14.51,14.28,22.86l6.64.86c2.89-5.35,8.4-3.57,13.75-4.19,3.49-1.06,5.85-4.52,9.34-5.59s7.34.55,11,.38c2.87-.13,5.93-1.44,8.76-.32,6.32,3.56,17.1-1,17.34-8.74,0-2.36-1-4.79-.21-7,1-2.94,4.41-4.19,6.45-6.51a8.11,8.11,0,0,0,.75-9.7C241.36,79.26,242.3,75.57,242.21,69.5Z" style="fill:#263238"></path><path d="M207.66,148.88s-1.1-.26-3.41-.86c-2.91-.74-2-2.48-1.94-5.42l.3-4.55c6.92,1.12,10.74.28,14.24-1.69,5.88-3.31,11.3-8.51,13.37-27.31.84-7.59-.93-11.41-.61-13.1,1.93-10.06,1.37-12-.33-17.5-3.19-8.89-13.51-13.29-19.25-4.91-11.92-12-28.25-.28-29.67,15.44.16,13.13-3.9,13.27-6.43,13-2.7-8.52-11.05-9.45-15.22-4.7-3.77,4.31-4.6,11.57.7,19,5.15,7.19,12.32,3.89,12.56,2.59,0,0-1.22,17.53-1.53,21s-.93,5.48-5.43,6.36h0l-6.46,1.27s.29.49.87,1.31c1.33,2,4.24,6.45,9.15,14,14,7.36,30.56,17.26,40.16,24.76,4.56-8.19,9.55-21.86,9.55-21.86A144,144,0,0,0,207.66,148.88Z" style="fill:#b16668"></path><path d="M197.21,115.09l9.53,3.88a5.05,5.05,0,0,1-6.63,3A5.39,5.39,0,0,1,197.21,115.09Z" style="fill:#9a4a4d"></path><path d="M197.65,117.4a5.66,5.66,0,0,1,5.3,4.84,4.81,4.81,0,0,1-2.84-.26,5.28,5.28,0,0,1-3.22-4.54A6.34,6.34,0,0,1,197.65,117.4Z" style="fill:#ffa8a7"></path><path d="M228.31,87.72l-7.31-3a3.79,3.79,0,0,1,5-2.24A4.16,4.16,0,0,1,228.31,87.72Z" style="fill:#263238"></path><path d="M191.37,85.33l7.68-2.28a3.84,3.84,0,0,0-4.84-2.77A4.21,4.21,0,0,0,191.37,85.33Z" style="fill:#263238"></path><path d="M219.09,98.63a3.31,3.31,0,0,0,2.69,3.74,3.11,3.11,0,0,0,3.67-2.57,3.33,3.33,0,0,0-2.69-3.75A3.11,3.11,0,0,0,219.09,98.63Z" style="fill:#263238"></path><path d="M195.57,96.58a3.39,3.39,0,0,0,2.74,3.82,3.19,3.19,0,0,0,3.76-2.63A3.4,3.4,0,0,0,199.32,94,3.17,3.17,0,0,0,195.57,96.58Z" style="fill:#263238"></path><path d="M202.61,138.05c-12.4-2.24-24.12-6.62-26.57-14.5a12.85,12.85,0,0,0,6.28,11.22,45.23,45.23,0,0,0,20,6.95Z" style="fill:#9a4a4d"></path><polygon points="220.5 109.59 209.72 113.73 209.17 93.55 220.5 109.59" style="fill:#9a4a4d"></polygon></g></g><g id="freepik--Bottom--inject-410"><path d="M385.51,426.15,361.7,397l26.74-20.14c10.56,19.1,20.88,37.37,27.91,44.62,0,0-6.12,16.41-15.64,16.74S387.17,431.58,385.51,426.15Z" style="fill:#b16668"></path><path d="M390.46,443.06A14.59,14.59,0,0,0,393.6,448c1.34,1.56,9.42,3.37,12.83,5.44s4.19,3.15,8.35,6.17c4.61,3.36,8.33,8.26,22.66,7.74,14.53-.52,22.42-5.38,27.15-10a15,15,0,0,0,3.43-6.25s-.78-8-5.37-8.05S390.46,443.06,390.46,443.06Z" style="fill:#263238"></path><path d="M413.6,415.13c1.31.57,2.89,3.05,3.79,4.12,3,3.62,7.77,6.18,11.95,8.29,19.76,9.95,32.65,4.51,37.45,17.9,1.17,3.82-1.22,10.43-17.2,17.15-8.16,3.43-22.83,2.68-28.55-1.07s-9-7.66-13.51-10.29-13.65-4.38-17.07-8.17c-2-2.22-3-5.22-3.85-8.05-.68-2.33-2.49-10.3-2.49-10.3,4.08,5.05,8.39,3.44,11.12,4.09s5.57,2.42,8.24,3.7c-2.58-3.51-5.17-5.35-3.89-8.07,1.19-2.54,1.23-3.09,6.17-6.14S412.44,414.63,413.6,415.13Z" style="fill:#FFC100"></path><path d="M413.6,415.13c1.31.57,2.89,3.05,3.79,4.12,3,3.62,7.77,6.18,11.95,8.29,19.76,9.95,32.65,4.51,37.45,17.9,1.17,3.82-1.22,10.43-17.2,17.15-8.16,3.43-22.83,2.68-28.55-1.07s-9-7.66-13.51-10.29-13.65-4.38-17.07-8.17c-2-2.22-3-5.22-3.85-8.05-.68-2.33-2.49-10.3-2.49-10.3,4.08,5.05,8.39,3.44,11.12,4.09s5.57,2.42,8.24,3.7c-2.58-3.51-5.17-5.35-3.89-8.07,1.19-2.54,1.23-3.09,6.17-6.14S412.44,414.63,413.6,415.13Z" style="opacity:0.4"></path><path d="M449.59,462.59c-8.16,3.43-22.83,2.68-28.55-1.07a62.13,62.13,0,0,1-5.42-4.06c.4.2.8.44,1.14.6.78.35,1.57.68,2.36,1,3.06,1.16,6.49,2.07,9.78,1.54,2.93-.48,10.21-1.44,11.31-4.93.62-2-.87-4.18-2.89-5.55-.86-.58-3.25-1.8-3.25-1.8a32,32,0,0,1,6.22-8.14c4.76-4.2,5.46-3.81,5.46-3.81a13.77,13.77,0,0,0,4.43,1.38,11.34,11.34,0,0,0,5-.69,6.72,6.72,0,0,0,1.4-1c4.77,1.52,8.22,3.81,10.23,9.43C468,449.26,465.57,455.87,449.59,462.59Z" style="opacity:0.30000000000000004"></path><path d="M429.34,427.54a73.15,73.15,0,0,0,16.37,5.83c4.84,3.38,4.22,5,1.39,4.5s-13.37-7.34-22.14-12.68C426.42,426,427.91,426.82,429.34,427.54Z" style="fill:#37474f"></path><path d="M392.33,431.18c-2.69-.39-4.81-.37-7.05-1.79-1.43-.84-2-4.28-1.85-5.79l2.23,2.71c3.95,2.09,6.85,1.84,9.58,2.49s5.57,2.42,8.24,3.7c8.51,4.59,11,7.36,19.33,10.69s14.54,3.17,14.7,4.52-1.48,3.53-8.48,2.11-17.73-7.59-22.63-11.21S396.12,431.74,392.33,431.18Z" style="fill:#37474f"></path><path d="M434.5,449.06a.86.86,0,0,0,.36-.37c2.87-5.69,5.26-8.49,11.75-11.55a.88.88,0,1,0-.75-1.6c-6.86,3.23-9.53,6.3-12.58,12.35a.88.88,0,0,0,.39,1.19A.87.87,0,0,0,434.5,449.06Z" style="fill:#ebebeb"></path><path d="M427.64,446a1,1,0,0,0,.36-.37c3.13-5.84,5.83-8.82,12.68-12.07a.9.9,0,0,0,.44-1.22.93.93,0,0,0-1.22-.43c-7.22,3.44-10.19,6.67-13.51,12.86a.91.91,0,0,0,.38,1.23A.9.9,0,0,0,427.64,446Z" style="fill:#ebebeb"></path><path d="M419.72,444.05a.94.94,0,0,0,.39-.4c3.46-6.44,6.68-9.9,14.23-13.48a1,1,0,1,0-.86-1.81c-7.94,3.77-11.48,7.52-15.14,14.34a1,1,0,0,0,1.38,1.35Z" style="fill:#ebebeb"></path><path d="M413.3,441.09a1,1,0,0,0,.38-.4c3.38-6.31,6.49-9.66,13.91-13.19a1,1,0,0,0,.46-1.31,1,1,0,0,0-1.31-.46c-7.79,3.69-11.21,7.34-14.8,14a1,1,0,0,0,1.36,1.33Z" style="fill:#ebebeb"></path><path d="M407.41,436.84a1,1,0,0,0,.38-.39c3.39-6.32,6.48-9.66,13.91-13.19a1,1,0,1,0-.85-1.78c-7.79,3.71-11.2,7.34-14.79,14a1,1,0,0,0,.4,1.33A1,1,0,0,0,407.41,436.84Z" style="fill:#ebebeb"></path><path d="M402,399.19c-6.91,10.64-24.17,18.69-24.17,18.69S371.25,411,355.19,396c-11.33-10.57-20.54-20.89-26.8-33.16-20-5.45-56.87-9.05-93.53-23.08-18.8-7.19-31-20.72-33.62-39.21-1.38-9.65.27-27,4.51-39.12l37.38-10.83s87,51.06,100.84,60.4c10.78,7.3,16.07,13.89,23.63,26.07C384.88,364.91,402,399.19,402,399.19Z" style="fill:#FFC100"></path><path d="M402,399.19c-6.91,10.64-24.17,18.69-24.17,18.69S371.25,411,355.19,396c-11.33-10.57-20.54-20.89-26.8-33.16-20-5.45-56.87-9.05-93.53-23.08-18.8-7.19-31-20.72-33.62-39.21-1.38-9.65.27-27,4.51-39.12l37.38-10.83s87,51.06,100.84,60.4c10.78,7.3,16.07,13.89,23.63,26.07C384.88,364.91,402,399.19,402,399.19Z" style="fill:#fff;opacity:0.30000000000000004"></path><path d="M356.1,423.07c0-3.74-8.72-9.92-15.23-15.39-10.42-8.77-17.08-14.33-19.45-22.3S317.94,373,318,367.68s0-12.14.46-29.71c.06-2.23.16-4.57.28-7H281.65c.93,3.52,1.78,6.74,2.41,9.5,2.1,9.23,5.78,30.63,5.87,32.63.12,2.94-.58,4.69-1.23,7.1-1.1,4.1-1.85,8.43-.55,13.31s4.79,5.72,8.45,9.62,4.51,4.08,6.94,9.66c2.59,6,6.55,15.44,21.57,20.69,7.88,2.75,19.17,2.48,27.14-1.22C356.42,430.3,356.1,424.46,356.1,423.07Z" style="fill:#b16668"></path><path d="M287.55,393.49a15.17,15.17,0,0,0,.87,5.91c.61,2,7.38,7.06,9.71,10.4s2.59,4.66,5.21,9.21c2.91,5,4.33,11.15,17.9,16.62,13.75,5.54,23.12,4.29,29.46,1.91a15.41,15.41,0,0,0,5.79-4.4s2.6-7.78-1.66-9.73S287.55,393.49,287.55,393.49Z" style="fill:#263238"></path><path d="M320.71,377.08c1,1.07,1.42,4,1.82,5.4,1.32,4.63,4.67,9,7.69,12.68,14.29,17.47,28.55,17.76,27.47,32.22-.5,4.05-5.48,9.22-23.15,8.84-9-.19-22.38-7-26.15-12.84s-5.25-10.89-8.32-15.2-10.9-9.74-12.52-14.69c-.95-2.9-.65-6.13-.24-9.1.34-2.45,1.95-10.63,1.95-10.63,1.71,6.4,6.39,6.69,8.66,8.42s4.19,4.58,6.15,6.87c-.95-4.34-2.6-7.13-.28-9.13,2.17-1.87,2.43-2.37,8.29-3.16S319.83,376.12,320.71,377.08Z" style="fill:#FFC100"></path><path d="M320.71,377.08c1,1.07,1.42,4,1.82,5.4,1.32,4.63,4.67,9,7.69,12.68,14.29,17.47,28.55,17.76,27.47,32.22-.5,4.05-5.48,9.22-23.15,8.84-9-.19-22.38-7-26.15-12.84s-5.25-10.89-8.32-15.2-10.9-9.74-12.52-14.69c-.95-2.9-.65-6.13-.24-9.1.34-2.45,1.95-10.63,1.95-10.63,1.71,6.4,6.39,6.69,8.66,8.42s4.19,4.58,6.15,6.87c-.95-4.34-2.6-7.13-.28-9.13,2.17-1.87,2.43-2.37,8.29-3.16S319.83,376.12,320.71,377.08Z" style="opacity:0.4"></path><path d="M334.54,436.22c-9-.19-22.38-7-26.15-12.84a58.32,58.32,0,0,1-3.37-6c.29.36.56.75.82,1,.57.65,1.17,1.28,1.79,1.89,2.37,2.34,5.19,4.62,8.48,5.48,2.92.77,10.1,2.9,12.57.11,1.4-1.58.93-4.26-.39-6.38-.55-.89-2.27-3-2.27-3a32.77,32.77,0,0,1,9.16-5c6.18-1.93,6.67-1.28,6.67-1.28a14,14,0,0,0,3.56,3.13,11.67,11.67,0,0,0,4.93,1.42,7.59,7.59,0,0,0,1.72-.36c3.81,3.39,6.08,7,5.63,13C357.19,431.43,352.21,436.6,334.54,436.22Z" style="opacity:0.30000000000000004"></path><path d="M330.22,395.16a74.65,74.65,0,0,0,12.83,12.23c3.11,5.15,1.85,6.43-.57,4.77s-9.41-12.39-15.37-21C328.12,392.56,329.19,393.9,330.22,395.16Z" style="fill:#37474f"></path><path d="M294.23,383.2c-2.35-1.49-4.33-2.34-5.83-4.6-.37-3.19.12-5.09,1.53-5.52l.1,2.81c2.82,3.59,5.62,4.56,7.89,6.29s4.19,4.58,6.15,6.87c6,7.81,7.21,11.43,13.57,18s12.23,9,11.82,10.31-2.84,2.68-8.77-1.55S307.31,401.36,304.25,396,297.52,385.29,294.23,383.2Z" style="fill:#37474f"></path><path d="M326.1,417.36a1,1,0,0,0,.49-.2c5-4.11,8.42-5.73,15.74-5.88a.91.91,0,0,0,0-1.81c-7.73.16-11.49,1.91-16.85,6.29a.91.91,0,0,0,.66,1.6Z" style="fill:#ebebeb"></path><path d="M321,411.69a1,1,0,0,0,.48-.19c5.34-4.14,9.1-5.8,16.83-6a.9.9,0,0,0,.91-.95.93.93,0,0,0-.95-.9c-8.15.2-12.26,2-17.92,6.37a.94.94,0,0,0-.17,1.31A.92.92,0,0,0,321,411.69Z" style="fill:#ebebeb"></path><path d="M314.4,406.55a.91.91,0,0,0,.53-.21c5.9-4.56,10.34-6.44,18.86-6.65a1,1,0,1,0-.05-2.05c-9,.23-13.82,2.25-20.06,7.09a1,1,0,0,0-.18,1.43A1,1,0,0,0,314.4,406.55Z" style="fill:#ebebeb"></path><path d="M309.65,401.13a1.06,1.06,0,0,0,.52-.21c5.77-4.48,10.05-6.31,18.43-6.52a1,1,0,0,0,1-1,1,1,0,0,0-1-1c-8.79.21-13.49,2.19-19.61,6.93a1,1,0,0,0-.18,1.41A1,1,0,0,0,309.65,401.13Z" style="fill:#ebebeb"></path><path d="M305.92,394.73a1.06,1.06,0,0,0,.53-.21c5.77-4.48,10.05-6.31,18.43-6.52a1,1,0,1,0-.05-2c-8.8.22-13.49,2.19-19.62,6.93a1,1,0,0,0,.71,1.8Z" style="fill:#ebebeb"></path><path d="M147,252.65c2.28,19.85,2.1,34.09,2.43,47.89s.68,40.15,28,52.5c27.09,12.23,52.22,5.82,66.5-5.35s31.21-42.5,31.21-42.5l9.37,37.48s4.48,5.21,17.76,4.21,17.6-6.64,17.6-6.64,2.36-40.15,3.32-66.6-2.18-46.58-16.82-56.29-36.67-.51-65.21,27.71l-2.06-7s-3.84,6.94-24.85,12C179.84,258.4,147,252.65,147,252.65Z" style="fill:#FFC100"></path><path d="M147,252.65c2.28,19.85,2.1,34.09,2.43,47.89s.68,40.15,28,52.5c27.09,12.23,52.22,5.82,66.5-5.35s31.21-42.5,31.21-42.5l9.37,37.48s4.48,5.21,17.76,4.21,17.6-6.64,17.6-6.64,2.36-40.15,3.32-66.6-2.18-46.58-16.82-56.29-36.67-.51-65.21,27.71l-2.06-7s-3.84,6.94-24.85,12C179.84,258.4,147,252.65,147,252.65Z" style="fill:#fff;opacity:0.5"></path><path d="M196.87,285.94c-8.8,11.73-16.12,25.16-11.9,41.26.65-21,9.33-31.32,16.36-41.07s39.88-41.07,39.88-41.07S205.67,274.21,196.87,285.94Zm74.16-22c-4.26,18.48-3.27,30.66.57,47.56l3.59-6.3C272.32,294.76,271,277.85,271,263.93Z" style="fill:#FFC100;opacity:0.4"></path><path d="M214.3,250.06c-34.46,8.34-67.28,2.59-67.28,2.59.62,5.38,1,10.34,1.37,15,23.08,7,62.18,6.21,78.54-8.19l14.28-14.4-2.06-7S235.31,245,214.3,250.06Z" style="fill:#FFC100"></path><path d="M214.3,250.06c-34.46,8.34-67.28,2.59-67.28,2.59.62,5.38,1,10.34,1.37,15,23.08,7,62.18,6.21,78.54-8.19l14.28-14.4-2.06-7S235.31,245,214.3,250.06Z" style="opacity:0.2"></path></g></g></g></svg>
